<svg width="100" height="100" viewBox="0 0 100 100" xmlns="http://www.w3.org/2000/svg">
  <!-- Dinosaur Theme Icon -->
  <defs>
    <linearGradient id="dino-gradient" x1="0%" y1="0%" x2="0%" y2="100%">
      <stop offset="0%" stop-color="#32CD32" />
      <stop offset="50%" stop-color="#228B22" />
      <stop offset="100%" stop-color="#006400" />
    </linearGradient>
  </defs>
  
  <!-- Background -->
  <rect width="100" height="100" fill="#f0f9ff" rx="15"/>
  
  <!-- Ground -->
  <rect x="0" y="75" width="100" height="25" fill="#228B22" rx="0 0 15 15"/>
  
  <!-- Simple dinosaur (cute brontosaurus) -->
  <g fill="url(#dino-gradient)">
    <!-- Body -->
    <ellipse cx="50" cy="60" rx="20" ry="10"/>
    
    <!-- Neck -->
    <ellipse cx="35" cy="55" rx="6" ry="3" transform="rotate(-30 35 55)"/>
    
    <!-- Head -->
    <ellipse cx="28" cy="45" rx="8" ry="6"/>
    
    <!-- Tail -->
    <ellipse cx="65" cy="58" rx="8" ry="4" transform="rotate(20 65 58)"/>
    
    <!-- Legs -->
    <ellipse cx="42" cy="68" rx="3" ry="6"/>
    <ellipse cx="50" cy="68" rx="3" ry="6"/>
    <ellipse cx="58" cy="68" rx="3" ry="6"/>
    <ellipse cx="66" cy="68" rx="3" ry="6"/>
  </g>
  
  <!-- Eye -->
  <circle cx="30" cy="43" r="1.5" fill="#000000"/>
  
  <!-- Spots -->
  <circle cx="45" cy="55" r="2" fill="#32CD32" opacity="0.7"/>
  <circle cx="55" cy="62" r="1.5" fill="#32CD32" opacity="0.7"/>
  
  <!-- Simple tree -->
  <rect x="75" y="50" width="4" height="25" fill="#8B4513"/>
  <ellipse cx="77" cy="45" rx="8" ry="10" fill="#228B22"/>
  <ellipse cx="77" cy="42" rx="6" ry="8" fill="#32CD32"/>
  
  <!-- Sun -->
  <circle cx="15" cy="20" r="8" fill="#FFD700" opacity="0.8"/>
  
  <!-- Small cloud -->
  <ellipse cx="70" cy="25" rx="8" ry="4" fill="#FFFFFF" opacity="0.8"/>
  <ellipse cx="65" cy="27" rx="6" ry="3" fill="#FFFFFF" opacity="0.8"/>
</svg>